<?xml version="1.0" encoding="UTF-8"?>
<svg version="1.1" xmlns="http://www.w3.org/2000/svg" width="500" height="189">
<path d="M0 0 C132 0 264 0 400 0 C400 32.34 400 64.68 400 98 C268 98 136 98 0 98 C0 65.66 0 33.32 0 0 Z M88 31 C85.63913878 34.54129184 85.42730422 35.82750218 86 40 C89.92882299 46.12505945 94.52880894 47.80504343 101.25 50.125 C103.07282379 50.75891498 104.89089559 51.40671673 106.703125 52.0703125 C107.90437012 52.48434326 107.90437012 52.48434326 109.12988281 52.90673828 C111 54 111 54 111.76855469 55.99560547 C112 58 112 58 112 60 C109.93757383 60.02717692 107.87504297 60.0464758 105.8125 60.0625 C104.66394531 60.07410156 103.51539063 60.08570313 102.33203125 60.09765625 C99.40699414 60.01192832 96.83683709 59.67849023 94 59 C93.67 57.02 93.34 55.04 93 53 C90.03 53 87.06 53 84 53 C84.5085543 57.37356702 85.26052669 60.50480992 88 64 C95.12553791 68.24500131 101.84049068 68.6087592 110 68 C113.98916133 66.98876155 117.42002144 65.29663927 120 62 C121.45147903 59.09704195 121.37239025 57.22738221 121 54 C117.05262303 46.71253483 109.36291855 44.87588832 102 42 C99.65914347 41.01656661 97.32963129 40.0099041 95 39 C95.33 37.68 95.66 36.36 96 35 C97.77049689 34.94589313 99.54146849 34.90715881 101.3125 34.875 C102.29863281 34.85179687 103.28476563 34.82859375 104.30078125 34.8046875 C107 35 107 35 110 37 C110.33 37.99 110.66 38.98 111 40 C113.64 40 116.28 40 119 40 C118.72690064 36.08557587 118.25007787 34.2973899 115.6875 31.25 C110.95399623 27.28706661 107.85316602 26.68715735 101.625 26.625 C99.69527344 26.58246094 99.69527344 26.58246094 97.7265625 26.5390625 C93.41948929 27.07180321 91.33495564 28.27497725 88 31 Z M130 27 C130 40.53 130 54.06 130 68 C132.64 68 135.28 68 138 68 C138 56.78 138 45.56 138 34 C138.66 34.33 139.32 34.66 140 35 C140.76196289 37.81982422 140.76196289 37.81982422 141.47265625 41.5546875 C141.60063095 42.21203888 141.72860565 42.86939026 141.86045837 43.54666138 C142.2693007 45.65463107 142.66629418 47.76462208 143.0625 49.875 C143.46454346 51.97773775 143.86900802 54.07998544 144.2752533 56.18191528 C144.64369223 58.09423385 145.00571284 60.00778565 145.36743164 61.92138672 C145.9404302 65.0193203 145.9404302 65.0193203 147 68 C152.28 68 157.56 68 163 68 C163.81912491 64.20965817 164.63044951 60.41791499 165.4375 56.625 C165.66759766 55.56410156 165.89769531 54.50320312 166.13476562 53.41015625 C167.50233435 46.94888951 168.51386909 40.58813461 169 34 C169.99 34 170.98 34 172 34 C172 45.22 172 56.44 172 68 C174.64 68 177.28 68 180 68 C180 54.47 180 40.94 180 27 C174.39 27 168.78 27 163 27 C161.69247192 30.92258424 160.65806004 34.24275399 159.9296875 38.22265625 C159.66865234 39.64868164 159.66865234 39.64868164 159.40234375 41.10351562 C159.14130859 42.56821289 159.14130859 42.56821289 158.875 44.0625 C158.69324219 45.04283203 158.51148438 46.02316406 158.32421875 47.03320312 C158.15277344 47.98259766 157.98132813 48.93199219 157.8046875 49.91015625 C157.64983887 50.76746338 157.49499023 51.62477051 157.33544922 52.50805664 C156.9950388 55.03685515 156.94126046 57.45167353 157 60 C155.68 60 154.36 60 153 60 C152.95101562 59.41226807 152.90203125 58.82453613 152.8515625 58.21899414 C152.24629978 51.55001638 151.21842936 45.01966729 150 38.4375 C149.82210937 37.44169922 149.64421875 36.44589844 149.4609375 35.41992188 C149.28820312 34.47568359 149.11546875 33.53144531 148.9375 32.55859375 C148.78152344 31.70579834 148.62554687 30.85300293 148.46484375 29.97436523 C148.18502645 28.00961398 148.18502645 28.00961398 147 27 C141.39 27 135.78 27 130 27 Z M202 27 C198.36614457 35.5295376 195.55525159 44.29980822 192.75 53.125 C192.28678855 54.57302234 191.8232492 56.02093983 191.359375 57.46875 C190.23580587 60.97796768 189.11666176 64.48857734 188 68 C190.64 68 193.28 68 196 68 C197.32 64.7 198.64 61.4 200 58 C205.94 58 211.88 58 218 58 C219.32 61.3 220.64 64.6 222 68 C224.64 68 227.28 68 230 68 C227.70691802 60.09886266 225.15767131 52.28676931 222.55615234 44.4831543 C221.86619725 42.41106337 221.1810907 40.33740642 220.49609375 38.26367188 C220.05758408 36.94521521 219.61879273 35.62685219 219.1796875 34.30859375 C218.78507324 33.12064209 218.39045898 31.93269043 217.98388672 30.70874023 C217.25916489 28.11809377 217.25916489 28.11809377 216 27 C213.64686445 26.92728259 211.29166332 26.91629132 208.9375 26.9375 C207.64714844 26.94652344 206.35679687 26.95554687 205.02734375 26.96484375 C204.02832031 26.97644531 203.02929688 26.98804687 202 27 Z M238 27 C238 40.53 238 54.06 238 68 C240.64 68 243.28 68 246 68 C246 63.05 246 58.1 246 53 C251.94 53 257.88 53 264 53 C264 57.95 264 62.9 264 68 C266.64 68 269.28 68 272 68 C272.02691685 65.54159395 272.04679802 63.08348118 272.0625 60.625 C272.07506836 59.57699219 272.07506836 59.57699219 272.08789062 58.5078125 C272.1835442 54.62704624 272.1835442 54.62704624 271 51 C267.52674819 49.8422494 264.63932552 49.93133348 261 50 C261 49.01 261 48.02 261 47 C261.9075 46.9175 262.815 46.835 263.75 46.75 C267.55587463 45.87172124 268.83666939 45.24499591 271 42 C271.70223113 37.08438209 271.842232 35.17402037 268.9375 31.125 C262.46411265 26.44212404 255.75467353 26.7393652 248.0625 26.875 C243.0815625 26.936875 243.0815625 26.936875 238 27 Z M281 27 C281 29.31 281 31.62 281 34 C285.29 34 289.58 34 294 34 C294 45.22 294 56.44 294 68 C296.64 68 299.28 68 302 68 C302.33 57.11 302.66 46.22 303 35 C309.435 34.505 309.435 34.505 316 34 C316 31.69 316 29.38 316 27 C304.45 27 292.9 27 281 27 Z " fill="#FD3131" transform="translate(50,35)"/>
<path d="M0 0 C1.65 0 3.3 0 5 0 C7.23828125 2.625 7.23828125 2.625 9.3125 6 C10.00988281 7.11375 10.70726562 8.2275 11.42578125 9.375 C11.94527344 10.24125 12.46476563 11.1075 13 12 C13.43570313 11.13375 13.87140625 10.2675 14.3203125 9.375 C14.91585937 8.26125 15.51140625 7.1475 16.125 6 C16.70507812 4.88625 17.28515625 3.7725 17.8828125 2.625 C18.58148438 1.75875 19.28015625 0.8925 20 0 C21.98 0 23.96 0 26 0 C26 7.59 26 15.18 26 23 C24.02 23 22.04 23 20 23 C19.67 20.03 19.34 17.06 19 14 C17.68 16.31 16.36 18.62 15 21 C12.6875 20.8125 12.6875 20.8125 10 20 C8.1875 17.4375 8.1875 17.4375 7 15 C6.67 17.64 6.34 20.28 6 23 C4.02 23 2.04 23 0 23 C0 15.41 0 7.82 0 0 Z " fill="#A30C0B" transform="translate(198,150)"/>
<path d="M0 0 C2.206875 -0.061875 4.41375 -0.12375 6.6875 -0.1875 C8.54955078 -0.23970703 8.54955078 -0.23970703 10.44921875 -0.29296875 C14.21666932 0.01787701 16.02794917 0.7227143 19 3 C20.58873246 6.17746491 20.41026221 9.54012202 20 13 C18.5 15.5 18.5 15.5 17 17 C18.98 19.97 18.98 19.97 21 23 C17.75 23.3125 17.75 23.3125 14 23 C11.8125 20.5625 11.8125 20.5625 10 18 C7.87053397 17.13034494 7.87053397 17.13034494 6 17 C6 18.98 6 20.96 6 23 C4.02 23 2.04 23 0 23 C0 15.41 0 7.82 0 0 Z M6 5 C6 7.31 6 9.62 6 12 C8.91652174 12.16681109 8.91652174 12.16681109 12 12 C12.66 11.34 13.32 10.68 14 10 C13.6814823 7.89179203 13.6814823 7.89179203 13 6 C10.69 5.67 8.38 5.34 6 5 Z " fill="#A50B0B" transform="translate(260,150)"/>
<path d="M0 0 C1.4540625 0.0309375 1.4540625 0.0309375 2.9375 0.0625 C12.9375 19.7625 12.9375 19.7625 12.9375 23.0625 C10.6275 23.0625 8.3175 23.0625 5.9375 23.0625 C5.6075 21.7425 5.2775 20.4225 4.9375 19.0625 C-0.0125 19.5575 -0.0125 19.5575 -5.0625 20.0625 C-5.3925 21.0525 -5.7225 22.0425 -6.0625 23.0625 C-8.3725 23.0625 -10.6825 23.0625 -13.0625 23.0625 C-11.51844283 18.13548339 -9.58124213 13.46605176 -7.5 8.75 C-7.02530273 7.65848633 -7.02530273 7.65848633 -6.54101562 6.54492188 C-3.70123837 0.07553548 -3.70123837 0.07553548 0 0 Z M-1.0625 8.0625 C-1.7225 10.0425 -2.3825 12.0225 -3.0625 14.0625 C-1.0825 14.0625 0.8975 14.0625 2.9375 14.0625 C1.4525 11.0925 1.4525 11.0925 -0.0625 8.0625 C-0.3925 8.0625 -0.7225 8.0625 -1.0625 8.0625 Z " fill="#AF0706" transform="translate(242.0625,149.9375)"/>
<path d="M0 0 C0.99 0 1.98 0 3 0 C3 11.22 3 22.44 3 34 C5.64 34 8.28 34 11 34 C11 34.33 11 34.66 11 35 C10.16855469 34.97679687 9.33710938 34.95359375 8.48046875 34.9296875 C7.39378906 34.91164062 6.30710938 34.89359375 5.1875 34.875 C4.10855469 34.85179687 3.02960938 34.82859375 1.91796875 34.8046875 C-1.19402868 34.76976283 -1.19402868 34.76976283 -4 37 C-4.66 36.67 -5.32 36.34 -6 36 C-9.65581171 35.73492604 -13.30546633 35.55514201 -16.96679688 35.39453125 C-22.8993079 35.1006921 -22.8993079 35.1006921 -24 34 C-24.14115161 31.32941149 -24.04247107 28.67567762 -24 26 C-23.67 26 -23.34 26 -23 26 C-22.67 28.64 -22.34 31.28 -22 34 C-16.72 34 -11.44 34 -6 34 C-5.7525 32.1025 -5.505 30.205 -5.25 28.25 C-3.90461645 18.75432188 -1.94558052 9.38789825 0 0 Z " fill="#F03334" transform="translate(219,69)"/>
<path d="M0 0 C1.12535156 0.47179687 1.12535156 0.47179687 2.2734375 0.953125 C3.29695312 1.38109375 4.32046875 1.8090625 5.375 2.25 C7.00695312 2.93255859 7.00695312 2.93255859 8.671875 3.62890625 C12.43873567 5.18074674 16.23119707 6.65749403 20.0390625 8.10546875 C22 9 22 9 24 11 C23.625 13.625 23.625 13.625 23 16 C17.79016357 17.73661214 12.28695838 17.4667262 6.9375 16.375 C5 15 5 15 4.1875 11.875 C4.125625 10.92625 4.06375 9.9775 4 9 C1.03 9 -1.94 9 -5 9 C-4.67 8.34 -4.34 7.68 -4 7 C-0.9375 6.375 -0.9375 6.375 2 6 C1.34 5.34 0.68 4.68 0 4 C0 2.68 0 1.36 0 0 Z " fill="#EF3735" transform="translate(139,79)"/>
<path d="M0 0 C6.93 0 13.86 0 21 0 C21 1.65 21 3.3 21 5 C18.69 5 16.38 5 14 5 C14 10.94 14 16.88 14 23 C12.02 23 10.04 23 8 23 C8 17.06 8 11.12 8 5 C5.36 5 2.72 5 0 5 C0 3.35 0 1.7 0 0 Z " fill="#A41011" transform="translate(284,150)"/>
<path d="M0 0 C0.95648438 -0.01675781 1.91296875 -0.03351563 2.8984375 -0.05078125 C6.0298685 0.3664438 7.41480566 1.07611852 9.625 3.3125 C9.625 4.3025 9.625 5.2925 9.625 6.3125 C11.935 6.3125 14.245 6.3125 16.625 6.3125 C16.625 9.6125 16.625 12.9125 16.625 16.3125 C15.55121094 15.84199219 14.47742188 15.37148437 13.37109375 14.88671875 C11.93490209 14.25779822 10.49870382 13.62889277 9.0625 13 C8.35802734 12.69126953 7.65355469 12.38253906 6.92773438 12.06445312 C6.22841797 11.75830078 5.52910156 11.45214844 4.80859375 11.13671875 C4.1122583 10.83032471 3.41592285 10.52393066 2.69848633 10.20825195 C1.33039222 9.61723143 -0.04483178 9.04241554 -1.42700195 8.48510742 C-6.26693726 6.52226884 -6.26693726 6.52226884 -7.4375 4.25 C-7.28864002 -0.36465929 -3.66141921 0.01472421 0 0 Z " fill="#EE3735" transform="translate(151.375,68.6875)"/>
<path d="M0 0 C3.40516738 0.04428046 5.70237235 0.23319024 8.9375 1.375 C10.75 3.25 10.75 3.25 11.125 6.3125 C10.75 9.25 10.75 9.25 9.75 11.25 C6.55283146 12.40595567 3.43507157 12.38400553 0.0625 12.375 C-0.91074219 12.37757812 -1.88398438 12.38015625 -2.88671875 12.3828125 C-5.25 12.25 -5.25 12.25 -6.25 11.25 C-6.34823937 9.58570949 -6.37973631 7.91718069 -6.375 6.25 C-6.37757813 5.3425 -6.38015625 4.435 -6.3828125 3.5 C-6.13155799 -0.756547 -3.73211504 0.0598735 0 0 Z " fill="#F8312B" transform="translate(302.25,68.75)"/>
<path d="M0 0 C1.859375 0.16796875 1.859375 0.16796875 4 1 C5.265625 3.36328125 5.265625 3.36328125 6.25 6.3125 C6.58515625 7.27800781 6.9203125 8.24351563 7.265625 9.23828125 C8 12 8 12 8 16 C4.04 16 0.08 16 -4 16 C-3.39891424 10.34979382 -1.92471317 5.33835539 0 0 Z " fill="#FC3230" transform="translate(257,69)"/>
<path d="M0 0 C3.96 0 7.92 0 12 0 C11.01 1.485 11.01 1.485 10 3 C7.69 2.67 5.38 2.34 3 2 C3.33 5.3 3.66 8.6 4 12 C5.32 12 6.64 12 8 12 C8 12.66 8 13.32 8 14 C6.35 14 4.7 14 3 14 C3 15.98 3 17.96 3 20 C1.68 20 0.36 20 -1 20 C-1.02689449 17.04160645 -1.04678741 14.08345573 -1.0625 11.125 C-1.07087891 10.28324219 -1.07925781 9.44148437 -1.08789062 8.57421875 C-1.09111328 7.76855469 -1.09433594 6.96289062 -1.09765625 6.1328125 C-1.10289307 5.38918457 -1.10812988 4.64555664 -1.11352539 3.87939453 C-1 2 -1 2 0 0 Z " fill="#B40202" transform="translate(262,152)"/>
<path d="M0 0 C2.206875 -0.061875 4.41375 -0.12375 6.6875 -0.1875 C8.54955078 -0.23970703 8.54955078 -0.23970703 10.44921875 -0.29296875 C14.18564321 0.0153171 16.00629483 0.81911727 19 3 C18.67 3.66 18.34 4.32 18 5 C17.46890625 4.68289062 16.9378125 4.36578125 16.390625 4.0390625 C13.45464152 2.7629651 10.93825671 2.58292979 7.75 2.375 C5.8525 2.25125 3.955 2.1275 2 2 C1.67 7.28 1.34 12.56 1 18 C0.67 18 0.34 18 0 18 C0 12.06 0 6.12 0 0 Z M13 3 C15.56687367 6.8503105 14.83288724 8.58569763 14 13 C11.69 13 9.38 13 7 13 C7 12.67 7 12.34 7 12 C8.98 11.34 10.96 10.68 13 10 C13 9.01 13 8.02 13 7 C10.69 6.34 8.38 5.68 6 5 C6 7.31 6 9.62 6 12 C5.67 12 5.34 12 5 12 C5 9.36 5 6.72 5 4 C6.134375 4.020625 7.26875 4.04125 8.4375 4.0625 C11.81575674 4.41577477 11.81575674 4.41577477 13 3 Z " fill="#9D1414" transform="translate(260,150)"/>
<path d="M0 0 C5.94 0 11.88 0 18 0 C19.32 3.3 20.64 6.6 22 10 C24.64 10.33 27.28 10.66 30 11 C30 11.33 30 11.66 30 12 C28.54176788 12.0270043 27.08339325 12.04639787 25.625 12.0625 C24.81289063 12.07410156 24.00078125 12.08570312 23.1640625 12.09765625 C21 12 21 12 19 11 C18.40227901 8.0170339 18.25662185 5.03669195 18 2 C9.585 2.495 9.585 2.495 1 3 C1 3.99 1 4.98 1 6 C0.67 6.99 0.34 7.98 0 9 C-0.99 9 -1.98 9 -3 9 C-2.01 6.03 -1.02 3.06 0 0 Z " fill="#E43839" transform="translate(250,92)"/>
<path d="M0 0 C0.66 0 1.32 0 2 0 C1.85764543 1.72945653 1.71095618 3.45855654 1.5625 5.1875 C1.48128906 6.15042969 1.40007812 7.11335938 1.31640625 8.10546875 C1.02333849 10.78649602 0.57296246 13.3662986 0 16 C-1.32 16 -2.64 16 -4 16 C-4.36504603 14.41913952 -4.71660506 12.83516093 -5.0625 11.25 C-5.25972656 10.36828125 -5.45695313 9.4865625 -5.66015625 8.578125 C-5.99825872 6.01320972 -5.81158635 4.42908361 -5 2 C-4.34 2.66 -3.68 3.32 -3 4 C-2.54625 3.34 -2.0925 2.68 -1.625 2 C-1.08875 1.34 -0.5525 0.68 0 0 Z " fill="#EB3835" transform="translate(207,79)"/>
<path d="M0 0 C0.99 0.33 1.98 0.66 3 1 C2.67 6.61 2.34 12.22 2 18 C0.68 18 -0.64 18 -2 18 C-2 12.39 -2 6.78 -2 1 C-1.34 0.67 -0.68 0.34 0 0 Z " fill="#B10302" transform="translate(295,154)"/>
<path d="M0 0 C2.97 0.495 2.97 0.495 6 1 C8 7.75 8 7.75 8 10 C7.01 10 6.02 10 5 10 C4.67 10.66 4.34 11.32 4 12 C3.67 11.34 3.34 10.68 3 10 C2.01 10.495 2.01 10.495 1 11 C-0.20272819 8.59454362 -0.10071472 7.05003047 -0.0625 4.375 C-0.05347656 3.55773437 -0.04445312 2.74046875 -0.03515625 1.8984375 C-0.02355469 1.27195313 -0.01195312 0.64546875 0 0 Z " fill="#B40305" transform="translate(199,152)"/>
<path d="M0 0 C1.79244141 0.01740234 1.79244141 0.01740234 3.62109375 0.03515625 C5.41740234 0.04869141 5.41740234 0.04869141 7.25 0.0625 C8.17683594 0.07410156 9.10367187 0.08570312 10.05859375 0.09765625 C10.05859375 0.42765625 10.05859375 0.75765625 10.05859375 1.09765625 C7.74859375 1.09765625 5.43859375 1.09765625 3.05859375 1.09765625 C3.24421875 1.71640625 3.42984375 2.33515625 3.62109375 2.97265625 C4.05859375 5.09765625 4.05859375 5.09765625 3.05859375 7.09765625 C-0.81640625 5.22265625 -0.81640625 5.22265625 -1.94140625 4.09765625 C-2.27140625 13.33765625 -2.60140625 22.57765625 -2.94140625 32.09765625 C-3.27140625 32.09765625 -3.60140625 32.09765625 -3.94140625 32.09765625 C-3.96606129 27.70109452 -3.98424467 23.30456905 -3.99633789 18.90795898 C-4.00137746 17.41120707 -4.00820912 15.91446009 -4.0168457 14.41772461 C-4.02892784 12.27065818 -4.03463816 10.12365663 -4.0390625 7.9765625 C-4.04429932 6.68306885 -4.04953613 5.3895752 -4.05493164 4.05688477 C-3.90426946 0.12962382 -3.90426946 0.12962382 0 0 Z " fill="#DF3838" transform="translate(355.94140625,68.90234375)"/>
<path d="M0 0 C1.32 0.66 2.64 1.32 4 2 C4.125 7.75 4.125 7.75 3 10 C-0.22477753 11.17600832 -3.34803656 11.10299956 -6.75 11.0625 C-7.73484375 11.05347656 -8.7196875 11.04445313 -9.734375 11.03515625 C-10.48203125 11.02355469 -11.2296875 11.01195313 -12 11 C-11.34 10.67 -10.68 10.34 -10 10 C-10.33 8.35 -10.66 6.7 -11 5 C-10.34 5 -9.68 5 -9 5 C-9 5.99 -9 6.98 -9 8 C-8.01 7.67 -7.02 7.34 -6 7 C-5.01 7.33 -4.02 7.66 -3 8 C-0.81701858 7.40854666 -0.81701858 7.40854666 1 6 C1.80528889 3.94999129 1.80528889 3.94999129 2 2 C1.34 2 0.68 2 0 2 C0 1.34 0 0.68 0 0 Z " fill="#EA3735" transform="translate(309,70)"/>
<path d="M0 0 C0 3 0 3 -1 5 C1.97 5.495 1.97 5.495 5 6 C5 12.27 5 18.54 5 25 C2 26 2 26 -0.1875 25.0625 C-1.0846875 24.5365625 -1.0846875 24.5365625 -2 24 C-0.02 24 1.96 24 4 24 C3.67 18.39 3.34 12.78 3 7 C-0.3 6.67 -3.6 6.34 -7 6 C-7 5.01 -7 4.02 -7 3 C-4.69 2.01 -2.38 1.02 0 0 Z " fill="#E73B3C" transform="translate(318,79)"/>
<path d="M0 0 C0.33 0 0.66 0 1 0 C1 2.31 1 4.62 1 7 C4.96 7.33 8.92 7.66 13 8 C13 8.33 13 8.66 13 9 C9.7 9.33 6.4 9.66 3 10 C2.67 10.99 2.34 11.98 2 13 C-0.31 13 -2.62 13 -5 13 C-3.58192622 8.52761347 -1.88695626 4.28853694 0 0 Z " fill="#9F0D0C" transform="translate(234,160)"/>
<path d="M0 0 C0.33 0.66 0.66 1.32 1 2 C1.66 2 2.32 2 3 2 C3 3.98 3 5.96 3 8 C2.67 7.34 2.34 6.68 2 6 C1.2575 6.515625 0.515 7.03125 -0.25 7.5625 C-3 9 -3 9 -5.3125 8.6875 C-5.869375 8.460625 -6.42625 8.23375 -7 8 C-6.67 5.69 -6.34 3.38 -6 1 C-3.03 1.495 -3.03 1.495 0 2 C0 1.34 0 0.68 0 0 Z " fill="#FD3133" transform="translate(308,70)"/>
<path d="M0 0 C1.859375 0.16796875 1.859375 0.16796875 4 1 C5.265625 3.36328125 5.265625 3.36328125 6.25 6.3125 C6.58515625 7.27800781 6.9203125 8.24351563 7.265625 9.23828125 C8 12 8 12 8 16 C4.04 16 0.08 16 -4 16 C-3.39891424 10.34979382 -1.92471317 5.33835539 0 0 Z M0 3 C-1.29243536 7.1196377 -2.26252625 10.66831683 -2 15 C0.97 15 3.94 15 7 15 C6.01 11.37 5.02 7.74 4 4 C2.68 3.67 1.36 3.34 0 3 Z " fill="#D03F3F" transform="translate(257,69)"/>
<path d="M0 0 C1.65 0 3.3 0 5 0 C5 2.97 5 5.94 5 9 C3.35 8.67 1.7 8.34 0 8 C0 8.66 0 9.32 0 10 C-0.99 9.67 -1.98 9.34 -3 9 C-3 8.01 -3 7.02 -3 6 C-2.34 5.67 -1.68 5.34 -1 5 C-0.34444881 2.47266765 -0.34444881 2.47266765 0 0 Z " fill="#B60203" transform="translate(218,152)"/>
<path d="M0 0 C0.66 0 1.32 0 2 0 C2 0.66 2 1.32 2 2 C5.3 2.33 8.6 2.66 12 3 C11.34 4.32 10.68 5.64 10 7 C4.1977825 7.36263859 0.36000789 6.25684543 -5 4 C-5 3.67 -5 3.34 -5 3 C-3.35 3 -1.7 3 0 3 C0 2.01 0 1.02 0 0 Z " fill="#FA3230" transform="translate(154,73)"/>
<path d="M0 0 C1.98 0 3.96 0 6 0 C6.66 1.32 7.32 2.64 8 4 C7.34 4 6.68 4 6 4 C6 3.34 6 2.68 6 2 C4.02 2 2.04 2 0 2 C0.5259375 2.7734375 0.5259375 2.7734375 1.0625 3.5625 C2.3615641 6.94006667 1.67217681 9.50468057 1 13 C0.67 13 0.34 13 0 13 C0 11.02 0 9.04 0 7 C-0.66 7 -1.32 7 -2 7 C-2.33 7.99 -2.66 8.98 -3 10 C-3.33 9.34 -3.66 8.68 -4 8 C-3.22265625 6.0546875 -3.22265625 6.0546875 -2.0625 3.875 C-1.49208984 2.78832031 -1.49208984 2.78832031 -0.91015625 1.6796875 C-0.60980469 1.12539062 -0.30945313 0.57109375 0 0 Z " fill="#941111" transform="translate(239,150)"/>
<path d="M0 0 C2.97 1.32 5.94 2.64 9 4 C8.34 4.45375 7.68 4.9075 7 5.375 C6.01 6.179375 6.01 6.179375 5 7 C5 7.66 5 8.32 5 9 C1.7 9 -1.6 9 -5 9 C-4.67 8.34 -4.34 7.68 -4 7 C-0.9375 6.375 -0.9375 6.375 2 6 C1.34 5.34 0.68 4.68 0 4 C0 2.68 0 1.36 0 0 Z " fill="#E0393B" transform="translate(139,79)"/>
<path d="M0 0 C0.33 0.66 0.66 1.32 1 2 C3.31 2 5.62 2 8 2 C8 5.3 8 8.6 8 12 C4.7 10.35 1.4 8.7 -2 7 C2 6 2 6 4 6 C4.33 5.34 4.66 4.68 5 4 C3.35 3.67 1.7 3.34 0 3 C0 2.01 0 1.02 0 0 Z " fill="#E13A3C" transform="translate(160,73)"/>
<path d="M0 0 C0.99 0 1.98 0 3 0 C3 10.56 3 21.12 3 32 C2.67 32 2.34 32 2 32 C1.67 23.09 1.34 14.18 1 5 C0.67 5 0.34 5 0 5 C0 3.35 0 1.7 0 0 Z " fill="#CF3D3C" transform="translate(219,69)"/>
<path d="M0 0 C5.94 0 11.88 0 18 0 C18 0.33 18 0.66 18 1 C10.08 1.495 10.08 1.495 2 2 C1.67 3.32 1.34 4.64 1 6 C0.67 6.99 0.34 7.98 0 9 C-0.99 9 -1.98 9 -3 9 C-2.01 6.03 -1.02 3.06 0 0 Z " fill="#C44A41" transform="translate(250,92)"/>
<path d="M0 0 C5 7.5 5 7.5 5 11 C2.69 11 0.38 11 -2 11 C-2.33 9.68 -2.66 8.36 -3 7 C-2.34 7 -1.68 7 -1 7 C-1 7.99 -1 8.98 -1 10 C0.1577506 6.52674819 0.06866652 3.63932552 0 0 Z " fill="#9B0B0C" transform="translate(250,162)"/>
<path d="M0 0 C2.61047801 1.305239 2.68066423 2.35826574 3.625 5.0625 C3.88539063 5.79597656 4.14578125 6.52945313 4.4140625 7.28515625 C4.60742188 7.85105469 4.80078125 8.41695312 5 9 C5.66 8.67 6.32 8.34 7 8 C6.67 11.3 6.34 14.6 6 18 C3.98996365 14.98494548 3.00828459 12.42503788 1.875 9 C1.52179688 7.948125 1.16859375 6.89625 0.8046875 5.8125 C0 3 0 3 0 0 Z " fill="#DC3936" transform="translate(269,69)"/>
<path d="M0 0 C0.33 0.66 0.66 1.32 1 2 C1.66 2 2.32 2 3 2 C2.71640113 3.4391134 2.42278601 4.87625518 2.125 6.3125 C1.96257812 7.11300781 1.80015625 7.91351563 1.6328125 8.73828125 C1 11 1 11 -1 14 C-0.67 11.03 -0.34 8.06 0 5 C-0.99 5 -1.98 5 -3 5 C-2.67 4.01 -2.34 3.02 -2 2 C-1.34 2 -0.68 2 0 2 C0 1.34 0 0.68 0 0 Z " fill="#E7383A" transform="translate(244,73)"/>
<path d="M0 0 C1.51400391 0.01740234 1.51400391 0.01740234 3.05859375 0.03515625 C4.07050781 0.04417969 5.08242188 0.05320312 6.125 0.0625 C7.29869141 0.07990234 7.29869141 0.07990234 8.49609375 0.09765625 C8.49609375 0.42765625 8.49609375 0.75765625 8.49609375 1.09765625 C5.85609375 1.09765625 3.21609375 1.09765625 0.49609375 1.09765625 C0.49609375 2.41765625 0.49609375 3.73765625 0.49609375 5.09765625 C-0.16390625 5.09765625 -0.82390625 5.09765625 -1.50390625 5.09765625 C-1.83390625 7.07765625 -2.16390625 9.05765625 -2.50390625 11.09765625 C-2.83390625 11.09765625 -3.16390625 11.09765625 -3.50390625 11.09765625 C-3.53078776 9.45191059 -3.55024748 7.80604212 -3.56640625 6.16015625 C-3.57800781 5.24363281 -3.58960938 4.32710938 -3.6015625 3.3828125 C-3.46380636 0.15931892 -3.23579438 0.12620103 0 0 Z " fill="#DC3537" transform="translate(299.50390625,68.90234375)"/>
<path d="M0 0 C0.33 0.66 0.66 1.32 1 2 C1.99 2.33 2.98 2.66 4 3 C3.67 4.32 3.34 5.64 3 7 C2.34 7 1.68 7 1 7 C1 8.98 1 10.96 1 13 C0.67 13 0.34 13 0 13 C0 8.71 0 4.42 0 0 Z " fill="#A70C0E" transform="translate(218,160)"/>
<path d="M0 0 C4 4.75 4 4.75 4 7 C3.01 7 2.02 7 1 7 C0.67 8.32 0.34 9.64 0 11 C-0.66 9.35 -1.32 7.7 -2 6 C-1.01 6 -0.02 6 1 6 C0.67 4.02 0.34 2.04 0 0 Z " fill="#940C0B" transform="translate(206,156)"/>
<path d="M0 0 C2.475 0.99 2.475 0.99 5 2 C4.67 3.65 4.34 5.3 4 7 C3.01 6.67 2.02 6.34 1 6 C0.67 4.02 0.34 2.04 0 0 Z " fill="#B40301" transform="translate(274,153)"/>
<path d="M0 0 C1.98 0 3.96 0 6 0 C6.33 1.32 6.66 2.64 7 4 C5.02 4 3.04 4 1 4 C0.67 2.68 0.34 1.36 0 0 Z " fill="#B60203" transform="translate(239,152)"/>
<path d="M0 0 C1.88671875 0.26171875 1.88671875 0.26171875 4 1 C5.08203125 2.70703125 5.08203125 2.70703125 5.8125 4.8125 C6.19341797 5.84310547 6.19341797 5.84310547 6.58203125 6.89453125 C7.05333812 9.26868457 6.75212833 10.72314894 6 13 C5.81824219 12.36191406 5.63648438 11.72382812 5.44921875 11.06640625 C5.19785156 10.24011719 4.94648438 9.41382812 4.6875 8.5625 C4.44386719 7.73878906 4.20023437 6.91507812 3.94921875 6.06640625 C3.63597656 5.38449219 3.32273437 4.70257813 3 4 C2.01 3.67 1.02 3.34 0 3 C0 2.01 0 1.02 0 0 Z " fill="#D8393B" transform="translate(257,69)"/>
<path d="M0 0 C2.475 0.495 2.475 0.495 5 1 C5 1.99 5 2.98 5 4 C4.01 4.33 3.02 4.66 2 5 C1.34 4.67 0.68 4.34 0 4 C0 2.68 0 1.36 0 0 Z " fill="#B50304" transform="translate(207,163)"/>
<path d="M0 0 C0.66 0 1.32 0 2 0 C2.33 1.98 2.66 3.96 3 6 C0.36 5.34 -2.28 4.68 -5 4 C-5 3.67 -5 3.34 -5 3 C-3.35 3 -1.7 3 0 3 C0 2.01 0 1.02 0 0 Z " fill="#EB3A3C" transform="translate(154,73)"/>
<path d="M0 0 C0.99 0.66 1.98 1.32 3 2 C2.34 3.32 1.68 4.64 1 6 C0.01 6 -0.98 6 -2 6 C-1.34 4.02 -0.68 2.04 0 0 Z " fill="#E23745" transform="translate(249,95)"/>
<path d="M0 0 C0 1.65 0 3.3 0 5 C-1.32 5 -2.64 5 -4 5 C-4 3.68 -4 2.36 -4 1 C-1 0 -1 0 0 0 Z " fill="#DC3F3D" transform="translate(207,90)"/>
</svg>
